#!OML:ASF H:\Dans Jumps\Project 1\Capture day 1\Session 1\subject.ASF
:FULLY-SPECIFIED
:DEGREES
580
root -0.00872413 17.7214 2.39938 6.74556 -0.0826433 -1.92973
lowerback -4.02985 -0.318975 -0.212838
upperback 0.688126 -0.459695 1.53854
thorax 2.98201 -0.246131 1.67231
lowerneck -12.9003 -1.06347 -2.73854
upperneck 16.9773 -1.21731 1.7305
head 7.36737 -0.598893 0.894574
rclavicle 3.10601e-015 7.55382e-015
rhumerus -28.7415 -20.0206 -79.2176
rradius 21.7533
rwrist 36.8021
rhand -19.9569 -25.898
rfingers 7.12502
rthumb 6.38139 -55.7819
lclavicle 3.10601e-015 7.55382e-015
lhumerus -26.5486 1.86008 88.0439
lradius 16.0386
lwrist 2.04475
lhand -26.4432 -5.16563
lfingers 7.12502
lthumb 0.117688 24.8141
rfemur -11.4699 -1.15727 18.9302
rtibia 19.4893
rfoot -13.1217 -2.85165
rtoes 10.5121
lfemur -11.2018 5.76032 -15.6056
ltibia 17.7553
lfoot -9.28192 7.07659
ltoes -3.25967
581
root -0.00702326 17.7214 2.40089 6.74234 -0.097087 -1.9219
lowerback -4.03774 -0.31282 -0.219639
upperback 0.694269 -0.451102 1.5331
thorax 2.99252 -0.24199 1.67107
lowerneck -12.9016 -1.08592 -2.74574
upperneck 16.959 -1.24937 1.7463
head 7.36253 -0.613174 0.897635
rclavicle 9.06955e-016 -5.56597e-015
rhumerus -28.7555 -20.0957 -79.1572
rradius 21.7155
rwrist 36.8868
rhand -19.9645 -25.8984
rfingers 7.12502
rthumb 6.37413 -55.7825
lclavicle 9.06955e-016 -5.56597e-015
lhumerus -26.5281 1.94442 88.0337
lradius 16.0544
lwrist 1.9906
lhand -26.4372 -5.17293
lfingers 7.12502
lthumb 0.12348 24.8068
rfemur -11.4598 -1.14874 18.9144
rtibia 19.4854
rfoot -13.1258 -2.85715
rtoes 10.4721
lfemur -11.1815 5.7656 -15.6208
ltibia 17.7413
lfoot -9.2852 7.08446
ltoes -3.25665
582
root -0.00541054 17.7214 2.40215 6.73868 -0.114244 -1.91625
lowerback -4.04403 -0.305594 -0.225124
upperback 0.700361 -0.441164 1.52862
thorax 3.00203 -0.237162 1.67016
lowerneck -12.8981 -1.1093 -2.75821
upperneck 16.9438 -1.28224 1.76451
head 7.35794 -0.627992 0.902295
rclavicle -2.19906e-015 7.35503e-015
rhumerus -28.7697 -20.1541 -79.1036
rradius 21.6899
rwrist 36.9485
rhand -19.9772 -25.8966
rfingers 7.12502
rthumb 6.36184 -55.781
lclavicle -2.19906e-015 7.35503e-015
lhumerus -26.5045 2.04249 88.0214
lradius 16.0637
lwrist 1.92118
lhand -26.4348 -5.17928
lfingers 7.12502
lthumb 0.125824 24.8004
rfemur -11.4524 -1.12818 18.9012
rtibia 19.4835
rfoot -13.1284 -2.8699
rtoes 10.4453
lfemur -11.1642 5.77031 -15.6329
ltibia 17.7311
lfoot -9.28626 7.09563
ltoes -3.25915
583
root -0.00382 17.7212 2.40319 6.73441 -0.132808 -1.90882
lowerback -4.04916 -0.297846 -0.232247
upperback 0.705641 -0.430427 1.52415
thorax 3.01005 -0.231954 1.67025
lowerneck -12.8877 -1.13652 -2.77477
upperneck 16.9315 -1.31945 1.7812
head 7.35323 -0.645329 0.906724
rclavicle 3.13086e-015 2.38542e-015
rhumerus -28.7835 -20.2057 -79.0523
rradius 21.6698
rwrist 36.9974
rhand -19.9903 -25.9006
rfingers 7.12502
rthumb 6.34923 -55.7855
lclavicle 3.13086e-015 2.38542e-015
lhumerus -26.4798 2.16166 88.005
lradius 16.0671
lwrist 1.82938
lhand -26.4333 -5.1869
lfingers 7.12502
lthumb 0.12722 24.7928
rfemur -11.4464 -1.10142 18.8859
rtibia 19.4836
rfoot -13.1316 -2.88653
rtoes 10.4206
lfemur -11.1504 5.7754 -15.6466
ltibia 17.7263
lfoot -9.28692 7.10599
ltoes -3.25478
584
root -0.00227173 17.721 2.40388 6.73374 -0.151199 -1.91339
lowerback -4.05295 -0.290969 -0.228365
upperback 0.711848 -0.421516 1.52304
thorax 3.01826 -0.2275 1.66751
lowerneck -12.8709 -1.16386 -2.80315
upperneck 16.9168 -1.35697 1.81086
head 7.34677 -0.662407 0.917329
rclavicle -8.90804e-015 1.78906e-015
rhumerus -28.7926 -20.215 -79.0218
rradius 21.6726
rwrist 36.9991
rhand -19.9991 -25.9156
rfingers 7.12502
rthumb 6.34065 -55.8007
lclavicle -8.90804e-015 1.78906e-015
lhumerus -26.4338 2.25435 87.9959
lradius 16.0507
lwrist 1.76767
lhand -26.4367 -5.20321
lfingers 7.12502
lthumb 0.123953 24.7765
rfemur -11.4469 -1.06705 18.8843
rtibia 19.4849
rfoot -13.1328 -2.90836
rtoes 10.4019
lfemur -11.1459 5.78094 -15.6468
ltibia 17.7275
lfoot -9.28751 7.11666
ltoes -3.2459
585
root -0.000707268 17.7207 2.40441 6.73401 -0.167928 -1.9206
lowerback -4.05663 -0.284918 -0.221178
upperback 0.716932 -0.413894 1.52294
thorax 3.02529 -0.223629 1.66386
lowerneck -12.843 -1.1964 -2.83372
upperneck 16.8996 -1.40072 1.83656
head 7.33775 -0.683027 0.926413
rclavicle 1.86361e-015 -2.78299e-015
rhumerus -28.8005 -20.2194 -78.9935
rradius 21.6795
rwrist 36.9928
rhand -19.9987 -25.9357
rfingers 7.12502
rthumb 6.34104 -55.8207
lclavicle 1.86361e-015 -2.78299e-015
lhumerus -26.3817 2.34637 87.9885
lradius 16.0319
lwrist 1.71685
lhand -26.4289 -5.19421
lfingers 7.12502
lthumb 0.131496 24.7855
rfemur -11.449 -1.03251 18.8858
rtibia 19.4874
rfoot -13.135 -2.93137
rtoes 10.3829
lfemur -11.1459 5.78659 -15.6439
ltibia 17.7334
lfoot -9.29089 7.12608
ltoes -3.23382
586
root 0.000943459 17.7203 2.4049 6.73481 -0.182357 -1.92653
lowerback -4.06051 -0.280189 -0.212734
upperback 0.721087 -0.40807 1.5221
thorax 3.03151 -0.220617 1.65863
lowerneck -12.8012 -1.23431 -2.86756
upperneck 16.8778 -1.45106 1.85997
head 7.32495 -0.707292 0.934676
rclavicle -1.44119e-015 1.23246e-014
rhumerus -28.8066 -20.2254 -78.9661
rradius 21.688
rwrist 36.9842
rhand -19.9897 -25.954
rfingers 7.12502
rthumb 6.34977 -55.8389
lclavicle -1.44119e-015 1.23246e-014
lhumerus -26.3268 2.42351 87.988
lradius 16.0225
lwrist 1.68894
lhand -26.4067 -5.10652
lfingers 7.12502
lthumb 0.152977 24.8732
rfemur -11.4514 -1.00173 18.8857
rtibia 19.4899
rfoot -13.1377 -2.95311
rtoes 10.3643
lfemur -11.1493 5.79336 -15.6428
ltibia 17.7437
lfoot -9.29843 7.13283
ltoes -3.21958
587
root 0.00271812 17.7199 2.40544 6.7364 -0.195832 -1.93057
lowerback -4.06613 -0.276654 -0.204268
upperback 0.724875 -0.403827 1.52064
thorax 3.03837 -0.218386 1.65263
lowerneck -12.739 -1.27823 -2.91216
upperneck 16.8472 -1.50866 1.88717
head 7.30606 -0.73547 0.945302
rclavicle 1.98785e-015 -8.34896e-015
rhumerus -28.8093 -20.2352 -78.9385
rradius 21.6955
rwrist 36.9786
rhand -19.9727 -25.9701
rfingers 7.12502
rthumb 6.36616 -55.8545
lclavicle 1.98785e-015 -8.34896e-015
lhumerus -26.2732 2.49834 87.9894
lradius 16.0128
lwrist 1.65652
lhand -26.3938 -5.04006
lfingers 7.12502
lthumb 0.165418 24.9396
rfemur -11.455 -0.975702 18.8832
rtibia 19.4935
rfoot -13.1406 -2.97225
rtoes 10.3412
lfemur -11.1535 5.80037 -15.6445
ltibia 17.7547
lfoot -9.30795 7.13908
ltoes -3.20547
